Land_normalized_Motion_pl15
version=1
nRows=10
nColumns=43
inDegrees=yes
endheader
time		pelvis_tilt		pelvis_list		pelvis_rotation		pelvis_tx		pelvis_ty		pelvis_tz		hip_flexion_r		hip_adduction_r		hip_rotation_r		knee_angle_r		ankle_angle_r		subtalar_angle_r		mtp_angle_r		hip_flexion_l		hip_adduction_l		hip_rotation_l		knee_angle_l		ankle_angle_l		subtalar_angle_l		mtp_angle_l		lumbar_extension		lumbar_bending		lumbar_rotation		neck_flexion		neck_lateral_bending		neck_rotation		arm_flex_r		arm_add_r		arm_rot_r		elbow_flex_r		pro_sup_r		wrist_flex_r		wrist_dev_r		hand_finger_flex_r		arm_flex_l		arm_add_l		arm_rot_l		elbow_flex_l		pro_sup_l		wrist_flex_l		wrist_dev_l		hand_finger_flex_l		
0.960000		-0.361629		-0.007429		87.263368		0.017218		1.045471		0.629691		30.759966		-3.047073		-10.912577		-27.842182		-25.711152		5.685263		16.668280		27.571491		-8.804927		-11.742863		-26.376870		-25.509609		15.390856		25.511124		-24.731883		-2.294172		0.346086		-39.823375		-3.998257		2.743715		-76.065253		-17.578122		-44.198749		80.370792		111.776403		-5.390279		-1.986726		24.351985		-77.655938		-12.056882		-32.138521		79.958665		109.191582		-5.594088		-10.630833		27.723533		
0.963359		-0.364011		0.265838		87.168601		0.016880		1.031413		0.624036		30.984069		-3.116166		-10.481571		-29.030867		-25.834676		5.638955		16.755831		27.755929		-8.829320		-11.466888		-27.476188		-25.358533		15.436849		25.558707		-24.999896		-2.320326		0.437788		-39.629958		-4.033780		2.755588		-75.858724		-17.300868		-44.673758		80.482635		111.634314		-5.475275		-2.180893		24.337148		-77.333126		-11.391468		-32.644371		79.717750		108.908548		-5.664995		-10.752617		27.782685		
0.966717		-0.351896		0.529275		87.066782		0.016564		1.017264		0.618486		31.273283		-3.162863		-10.054206		-30.283648		-26.116058		5.598723		16.806046		27.979244		-8.863573		-11.153813		-28.575465		-25.461973		15.507643		25.597159		-25.275837		-2.334873		0.549724		-39.388833		-4.050231		2.728775		-75.538174		-17.050066		-45.116135		80.573109		111.483049		-5.588271		-2.324231		24.306625		-76.885754		-10.769648		-33.127268		79.437365		108.587342		-5.803386		-10.866116		27.809590		
0.970076		-0.330684		0.781025		86.960827		0.016312		1.003042		0.613172		31.644762		-3.179300		-9.612413		-31.603394		-26.454656		5.550299		16.906612		28.264667		-8.901346		-10.789804		-29.672075		-25.792260		15.573991		25.633236		-25.577977		-2.347455		0.665257		-39.100331		-4.061522		2.655488		-75.091569		-16.847044		-45.498761		80.658844		111.334330		-5.714452		-2.429891		24.262887		-76.300489		-10.209325		-33.566754		79.116628		108.221830		-5.996902		-10.972288		27.809107		
0.973434		-0.345962		0.869402		86.875216		0.015999		0.988472		0.607759		32.275761		-3.225054		-9.166612		-33.068048		-26.676765		5.457465		17.720274		28.749823		-8.880841		-10.401363		-30.764126		-26.238012		15.454823		25.759947		-25.653533		-2.381317		0.762411		-39.026031		-4.070343		2.577867		-74.558060		-16.800737		-45.725101		80.610246		111.190346		-5.804741		-2.491064		24.206174		-75.658683		-9.903961		-33.767231		78.641907		107.616433		-6.271811		-11.136015		27.824705		
0.976793		-0.384831		0.778012		86.757824		0.015759		0.973231		0.603031		33.244155		-3.178631		-8.385264		-34.724202		-26.384966		5.322392		19.459325		29.600994		-8.826366		-9.782269		-32.050222		-26.638970		15.232082		26.023809		-25.658295		-2.445439		0.844882		-38.366758		-4.112656		2.399934		-73.892840		-16.636185		-46.072959		80.688576		110.984149		-5.955127		-2.589017		24.121089		-74.874073		-9.376774		-34.131574		78.202010		106.633472		-6.799438		-11.390188		27.848662		
0.980152		-0.504353		0.592883		86.686580		0.015398		0.957766		0.598210		34.318495		-3.279723		-7.778745		-36.447315		-25.996470		5.417926		28.373432		30.597864		-8.686731		-9.193640		-33.505972		-26.366153		15.240997		27.585219		-25.515065		-2.582846		0.908977		-37.958869		-4.094071		2.214105		-73.165451		-16.642860		-46.216730		80.609740		110.884495		-6.107265		-2.570835		24.038492		-74.163636		-9.242277		-34.046920		77.817115		105.191171		-7.918683		-11.439697		27.929051		
0.983510		-0.482748		0.933702		86.606770		0.015003		0.943259		0.593324		34.802992		-3.172795		-7.068290		-38.530905		-23.138936		5.664134		29.749164		30.928965		-8.611080		-8.577054		-35.117321		-23.799144		15.081531		27.971017		-26.019605		-2.594394		0.952641		-37.353215		-4.048329		2.159139		-72.303874		-16.749437		-46.369518		80.642917		110.828411		-6.221617		-2.635430		24.010700		-73.118833		-8.871547		-34.376929		77.384025		105.065627		-8.163577		-11.426075		27.811035		
0.986869		-0.544666		0.959582		86.544302		0.014747		0.928135		0.588594		35.640173		-3.114370		-6.329955		-40.875733		-18.970654		6.526034		31.656946		31.656051		-8.489681		-7.950162		-37.070435		-19.995092		15.334852		28.541664		-26.173134		-2.697273		0.993462		-36.782594		-3.953180		2.087154		-71.329602		-16.848229		-46.426131		80.555830		110.726358		-6.365638		-2.685565		24.009113		-72.031775		-8.613739		-34.660138		76.895414		104.565706		-8.629443		-11.489820		27.485106		
0.990227		-0.607096		1.037340		86.448641		0.014464		0.912964		0.584052		36.408262		-3.018411		-5.663268		-43.462707		-13.656455		7.193212		32.969997		32.355030		-8.362795		-7.351859		-39.416433		-14.687581		15.519581		29.039118		-26.409926		-2.814921		1.039272		-36.109278		-3.844386		2.015890		-70.311010		-17.073349		-46.383749		80.524048		110.639735		-6.511620		-2.743148		24.029893		-70.953548		-8.447370		-34.841298		76.486751		104.008049		-9.097643		-11.507364		27.117318		
